<svg width="25" height="25" viewBox="0 0 25 25" fill="none" xmlns="http://www.w3.org/2000/svg">
<g clip-path="url(#clip0_1_47)">
<path d="M24.9609 18.8965L23.8257 23.8183C23.6662 24.5141 23.0547 25.001 22.3384 25.001C10.0195 25 0 14.9805 0 2.66114C0 1.94532 0.486768 1.33302 1.18262 1.17433L6.10449 0.0390752C6.82129 -0.127038 7.55371 0.245032 7.85156 0.92384L10.123 6.22169C10.3886 6.84571 10.2095 7.57276 9.68457 8.00147L7.05566 10.1123C8.71484 13.4922 11.4629 16.2402 14.8438 17.9004L16.9961 15.2734C17.4203 14.7471 18.1528 14.5649 18.7769 14.8352L24.0747 17.1062C24.7119 17.4414 25.127 18.1836 24.9609 18.8965Z" fill="#9355A9"/>
</g>
<defs>
<clipPath id="clip0_1_47">
<rect width="25" height="25" fill="white"/>
</clipPath>
</defs>
</svg>
