<svg width="26" height="26" viewBox="0 0 26 26" fill="none" xmlns="http://www.w3.org/2000/svg">
<path d="M19.3046 7.23256C19.3046 10.8126 16.4053 13.7151 12.8349 13.7151C9.26456 13.7151 6.36528 10.8126 6.36528 7.23256C6.36528 3.65253 9.26456 0.75 12.8349 0.75C16.4053 0.75 19.3046 3.65253 19.3046 7.23256ZM12.8349 17.626C13.2045 17.626 13.5694 17.6044 13.9284 17.5626C14.639 17.4799 15.3535 17.3475 16.0382 17.2207C16.2534 17.1808 16.4656 17.1415 16.6739 17.1044C17.564 16.946 18.4112 16.8223 19.2524 16.8223C22.3816 16.8223 24.9199 19.3633 24.9199 22.5013V23.3049C24.9199 24.2229 24.1765 24.9658 23.2633 24.9658H2.40655C1.49341 24.9658 0.75 24.2229 0.75 23.3049V22.5013C0.75 19.3633 3.28829 16.8223 6.41747 16.8223C7.25876 16.8223 8.10601 16.9459 8.99614 17.1043C9.20508 17.1414 9.41804 17.1809 9.63396 17.2209C10.318 17.3475 11.0317 17.4797 11.7414 17.5625C12.1003 17.6044 12.4651 17.626 12.8349 17.626Z" stroke="#9355A9" stroke-width="1.5"/>
</svg>
