<svg width="40" height="36" viewBox="0 0 40 36" fill="none" xmlns="http://www.w3.org/2000/svg">
<path d="M38.9437 8.69532L21.275 0.789069C20.4169 0.405475 19.4813 0.405475 18.6231 0.789069L1.00312 8.69532C0.402375 8.96875 0 9.6875 0 10.5C0 11.3125 0.402375 12.0352 1.00312 12.3039L4.75437 13.9844C4.01125 15.2188 3.48813 16.6531 3.22 18.1992C2.50313 18.5781 2 19.4688 2 20.5C2 21.2776 2.30087 21.9445 2.74625 22.4031L1.19438 34.0437C1.0925 34.8047 1.5625 35.5 2.18062 35.5H5.81938C6.43731 35.5 6.9075 34.8063 6.80562 34.0445L5.25375 22.4039C5.69937 21.9453 6 21.2109 6 20.5C6 19.6961 5.67662 19.0133 5.205 18.5555C5.47075 17.168 6.01 15.9133 6.76375 14.8813L18.6763 20.2117C19.5344 20.5953 20.47 20.5953 21.3281 20.2117L38.9969 12.3055C39.6 12.0313 40 11.3125 40 10.5C40 9.6875 39.6 8.96875 38.9437 8.69532ZM21.9438 22.5625C21.3563 22.8516 20.6812 23 20 23C19.3175 23 18.6444 22.8541 18 22.566L8.925 18.5078L8 29.6641C8 32.8906 13.3187 35.5 20 35.5C26.5687 35.5 32 32.8906 32 29.6664L31.0763 18.5023L21.9438 22.5625Z" fill="white"/>
</svg>
