<svg width="40" height="40" viewBox="0 0 40 40" fill="none" xmlns="http://www.w3.org/2000/svg">
<path d="M13.5714 1.875C13.5714 3.60089 14.9705 5 16.6964 5H23.3036C25.0295 5 26.4286 3.60089 26.4286 1.875C26.4286 0.839844 27.3839 0 28.5714 0C29.7589 0 30.7143 0.839844 30.7143 1.875C30.7143 3.60089 32.1134 5 33.8393 5H34.2857C37.4375 5 40 7.23828 40 10V35C40 37.7578 37.4375 40 34.2857 40H5.71429C2.55804 40 0 37.7578 0 35V10C0 7.23828 2.55804 5 5.71429 5H6.16071C7.8866 5 9.28571 3.60089 9.28571 1.875C9.28571 0.839844 10.2411 0 11.4286 0C12.6161 0 13.5714 0.839844 13.5714 1.875ZM4.28571 35C4.28571 35.6875 4.925 36.25 5.71429 36.25H34.2857C35.0714 36.25 35.7143 35.6875 35.7143 35V25C35.7143 19.4772 31.2371 15 25.7143 15H14.2857C8.76286 15 4.28571 19.4772 4.28571 25V35Z" fill="white"/>
</svg>
