<svg width="100" height="88" viewBox="0 0 100 88" fill="none" xmlns="http://www.w3.org/2000/svg">
<path d="M97.3594 20.7383L53.1875 0.972656C51.0422 0.0136719 48.7031 0.0136719 46.5578 0.972656L2.50781 20.7383C1.00594 21.4219 0 23.2187 0 25.25C0 27.2812 1.00594 29.0879 2.50781 29.7598L11.8859 33.9609C10.0281 37.0469 8.72031 40.6328 8.05 44.498C6.25781 45.4453 5 47.6719 5 50.25C5 52.1939 5.75219 53.8613 6.86562 55.0078L2.98594 84.1094C2.73125 86.0117 3.90625 87.75 5.45156 87.75H14.5484C16.0933 87.75 17.2687 86.0158 17.0141 84.1113L13.1344 55.0098C14.2484 53.8633 15 52.0273 15 50.25C15 48.2402 14.1916 46.5332 13.0125 45.3887C13.6769 41.9199 15.025 38.7832 16.9094 36.2031L46.6906 49.5293C48.8359 50.4883 51.175 50.4883 53.3203 49.5293L97.4922 29.7637C99 29.0781 100 27.2812 100 25.25C100 23.2187 99 21.4219 97.3594 20.7383ZM54.8594 55.4062C53.3906 56.1289 51.7031 56.5 50 56.5C48.2938 56.5 46.6109 56.1353 45 55.415L22.3125 45.2695L20 73.1601C20 81.2265 33.2969 87.75 50 87.75C66.4219 87.75 80 81.2265 80 73.166L77.6906 45.2558L54.8594 55.4062Z" fill="white"/>
</svg>
