<svg width="100" height="80" viewBox="0 0 100 80" fill="none" xmlns="http://www.w3.org/2000/svg">
<path d="M28.75 13.75C28.75 18.5781 24.8281 22.5 20 22.5C15.1672 22.5 11.25 18.5781 11.25 13.75C11.25 8.91719 15.1672 5 20 5C24.8281 5 28.75 8.91719 28.75 13.75ZM32.5625 30.6719C27.9219 34.7969 25 40.8125 25 47.5C25 52.8594 26.7344 57.7812 30 61.6406V65C30 67.7656 27.7656 70 25 70H15C12.2391 70 10 67.7656 10 65V60.8125C4.0875 58 0 51.9844 0 45C0 35.3281 7.83437 27.5 17.5 27.5H22.5C26.1094 27.5 29.7187 28.6719 32.5625 30.6719ZM10 38.3906C8.44375 40.1406 7.5 42.4688 7.5 45C7.5 47.5312 8.44375 49.8594 10 51.6094V38.3906ZM70 65V61.6406C73.125 57.7812 75 52.8594 75 47.5C75 40.8125 72.0781 34.7969 67.4375 30.6719C70.2812 28.6719 73.75 27.5 77.5 27.5H82.5C92.1719 27.5 100 35.3281 100 45C100 51.9844 95.9062 58 90 60.8125V65C90 67.7656 87.7656 70 85 70H75C72.2344 70 70 67.7656 70 65ZM90 51.6094C91.4219 49.8594 92.5 47.5312 92.5 45C92.5 42.4688 91.4219 40.1406 90 38.3906V51.6094ZM88.75 13.75C88.75 18.5781 84.8281 22.5 80 22.5C75.1719 22.5 71.25 18.5781 71.25 13.75C71.25 8.91719 75.1719 5 80 5C84.8281 5 88.75 8.91719 88.75 13.75ZM40 15C40 9.47656 44.4844 5 50 5C55.5156 5 60 9.47656 60 15C60 20.5156 55.5156 25 50 25C44.4844 25 40 20.5156 40 15ZM70 47.5C70 54.4844 65.9062 60.5 60 63.3125V70C60 72.7656 57.7656 75 55 75H45C42.2344 75 40 72.7656 40 70V63.3125C34.0938 60.5 30 54.4844 30 47.5C30 37.8281 37.8281 30 47.5 30H52.5C62.1719 30 70 37.8281 70 47.5ZM40 54.1094V40.8906C38.4375 42.6406 37.5 44.9688 37.5 47.5C37.5 50.0312 38.4375 52.3594 40 54.1094ZM60 40.8906V54.1094C61.4219 52.3437 62.5 50.0312 62.5 47.5C62.5 44.9688 61.4219 42.6406 60 40.8906Z" fill="white"/>
</svg>
