<svg width="100" height="80" viewBox="0 0 100 80" fill="none" xmlns="http://www.w3.org/2000/svg">
<path d="M49.9844 50C58.9547 50 66.0938 42.725 66.0938 33.75C66.0938 24.775 58.8219 17.5 49.9844 17.5C41.0141 17.5 33.875 24.775 33.875 33.75C33.7344 42.7188 41.0156 50 49.9844 50ZM57.7969 55H42.2031C29.9375 55 20 64.3281 20 75.8281C20 78.1406 21.9844 80 24.4375 80H75.5625C78.0156 80 80 78.1406 80 75.8281C80 64.3281 70.0625 55 57.7969 55ZM80 25C86.9031 25 92.5 19.4031 92.5 12.5C92.5 5.59688 86.9062 0 80 0C73.0969 0 67.5 5.59688 67.5 12.5C67.5 19.4031 73.0938 25 80 25ZM28.7344 33.75C28.7344 32.8986 28.8879 32.0891 28.9858 31.2641C27.2812 30.3281 25.4062 30 23.4219 30H13.7625C6.1625 30 0 36.5312 0 44.5781C0 46.1875 1.23234 47.5 2.75313 47.5H33.925C30.7344 43.7812 28.7344 39.0156 28.7344 33.75ZM20 25C26.9031 25 32.5 19.4031 32.5 12.5C32.5 5.59688 26.9062 0 20 0C13.0969 0 7.5 5.59688 7.5 12.5C7.5 19.4031 13.0969 25 20 25ZM86.2344 30H76.5719C74.5719 30 72.6844 30.4745 70.9688 31.2875C71.0625 32.1094 71.2188 32.9062 71.2188 33.75C71.2188 39.0172 69.2219 43.7828 66.0375 47.5H97.2406C98.7656 47.5 100 46.1875 100 44.5781C100 36.5312 93.8438 30 86.2344 30Z" fill="white"/>
</svg>
