<svg width="30" height="30" viewBox="0 0 30 30" fill="none" xmlns="http://www.w3.org/2000/svg">
<path d="M13.5938 7.03125C13.5938 6.25195 14.2207 5.625 15 5.625C15.7793 5.625 16.4062 6.25195 16.4062 7.03125V14.25L21.4043 17.5781C22.0488 18.0117 22.2246 18.8848 21.7441 19.5293C21.3633 20.1738 20.4902 20.3496 19.8457 19.8691L14.2207 16.1191C13.8281 15.9082 13.5938 15.4688 13.5938 14.9473V7.03125ZM15 0C23.2852 0 30 6.71484 30 15C30 23.2852 23.2852 30 15 30C6.71484 30 0 23.2852 0 15C0 6.71484 6.71484 0 15 0ZM2.8125 15C2.8125 21.7324 8.26758 27.1875 15 27.1875C21.7324 27.1875 27.1875 21.7324 27.1875 15C27.1875 8.26758 21.7324 2.8125 15 2.8125C8.26758 2.8125 2.8125 8.26758 2.8125 15Z" fill="white"/>
</svg>
