<svg width="40" height="40" viewBox="0 0 40 40" fill="none" xmlns="http://www.w3.org/2000/svg">
<path d="M17.4766 10.2188L11.6484 0.607031C11.4922 0.230391 11.0859 0 10.6484 0H1.25235C0.240632 0 -0.351555 1.13906 0.228913 1.96719L8.92422 14.3813C11.2422 12.2188 14.1953 10.7266 17.4766 10.2188ZM20 12.5C12.4023 12.5 6.25001 18.6523 6.25001 26.25C6.25001 33.8477 12.4063 40 20 40C27.5938 40 33.75 33.8477 33.75 26.25C33.75 18.6523 27.6016 12.5 20 12.5ZM27.2266 24.7891L24.2672 27.6797L24.9605 31.7617C25.0875 32.4844 24.316 33.0508 23.6613 32.6992L19.9988 30.7758L16.3359 32.6953C15.6816 33.0469 14.9102 32.4805 15.0367 31.7578L15.7301 27.6758L12.7707 24.7852C12.2344 24.2656 12.5391 23.3594 13.2734 23.25L17.3656 22.6543L19.1953 18.9453C19.3516 18.6133 19.6738 18.4473 19.9961 18.4473C20.3184 18.4473 20.6406 18.6172 20.7969 18.9453L22.6328 22.6562L26.725 23.252C27.4687 23.3594 27.7656 24.2656 27.2266 24.7891ZM38.6797 0H29.3516C28.9124 0 28.5055 0.230391 28.2797 0.607031L22.5172 10.1461C25.7984 10.6539 28.7578 12.1477 31.0719 14.3164L39.7672 1.90234C40.3516 1.13906 39.7578 0 38.6797 0Z" fill="white"/>
</svg>
