<svg width="40" height="40" viewBox="0 0 40 40" fill="none" xmlns="http://www.w3.org/2000/svg">
<path d="M35 0C37.7604 0 40 1.67891 40 3.75V36.25C40 38.3203 37.7604 40 35 40H25V33.75C25 31.6797 22.7604 30 20 30C17.2396 30 15 31.6797 15 33.75V40H5C2.23854 40 0 38.3203 0 36.25V3.75C0 1.67891 2.23854 0 5 0H35ZM6.66667 21.25C6.66667 21.9375 7.4125 22.5 8.33333 22.5H11.6667C12.5833 22.5 13.3333 21.9375 13.3333 21.25V18.75C13.3333 18.0625 12.5833 17.5 11.6667 17.5H8.33333C7.4125 17.5 6.66667 18.0625 6.66667 18.75V21.25ZM18.3333 17.5C17.4167 17.5 16.6667 18.0625 16.6667 18.75V21.25C16.6667 21.9375 17.4167 22.5 18.3333 22.5H21.6667C22.5833 22.5 23.3333 21.9375 23.3333 21.25V18.75C23.3333 18.0625 22.5833 17.5 21.6667 17.5H18.3333ZM26.6667 21.25C26.6667 21.9375 27.4167 22.5 28.3333 22.5H31.6667C32.5833 22.5 33.3333 21.9375 33.3333 21.25V18.75C33.3333 18.0625 32.5833 17.5 31.6667 17.5H28.3333C27.4167 17.5 26.6667 18.0625 26.6667 18.75V21.25ZM8.33333 7.5C7.4125 7.5 6.66667 8.0625 6.66667 8.75V11.25C6.66667 11.9375 7.4125 12.5 8.33333 12.5H11.6667C12.5833 12.5 13.3333 11.9375 13.3333 11.25V8.75C13.3333 8.0625 12.5833 7.5 11.6667 7.5H8.33333ZM16.6667 11.25C16.6667 11.9375 17.4167 12.5 18.3333 12.5H21.6667C22.5833 12.5 23.3333 11.9375 23.3333 11.25V8.75C23.3333 8.0625 22.5833 7.5 21.6667 7.5H18.3333C17.4167 7.5 16.6667 8.0625 16.6667 8.75V11.25ZM28.3333 7.5C27.4167 7.5 26.6667 8.0625 26.6667 8.75V11.25C26.6667 11.9375 27.4167 12.5 28.3333 12.5H31.6667C32.5833 12.5 33.3333 11.9375 33.3333 11.25V8.75C33.3333 8.0625 32.5833 7.5 31.6667 7.5H28.3333Z" fill="white"/>
</svg>
